<?xml version="1.0" encoding="UTF-8" standalone="no"?>
<svg
   xmlns:dc="http://purl.org/dc/elements/1.1/"
   xmlns:cc="http://creativecommons.org/ns#"
   xmlns:rdf="http://www.w3.org/1999/02/22-rdf-syntax-ns#"
   xmlns:svg="http://www.w3.org/2000/svg"
   xmlns="http://www.w3.org/2000/svg"
   xmlns:sodipodi="http://sodipodi.sourceforge.net/DTD/sodipodi-0.dtd"
   xmlns:inkscape="http://www.inkscape.org/namespaces/inkscape"
   width="210mm"
   height="297mm"
   viewBox="0 0 210 297"
   version="1.1"
   id="svg8"
   inkscape:version="1.0.2 (1.0.2+r75+1)"
   sodipodi:docname="bottom.svg">
  <defs
     id="defs2" />
  <sodipodi:namedview
     id="base"
     pagecolor="#ffffff"
     bordercolor="#666666"
     borderopacity="1.0"
     inkscape:pageopacity="0.0"
     inkscape:pageshadow="2"
     inkscape:zoom="0.49497475"
     inkscape:cx="742.25733"
     inkscape:cy="219.64332"
     inkscape:document-units="mm"
     inkscape:current-layer="layer1"
     inkscape:document-rotation="0"
     showgrid="false"
     inkscape:window-width="1511"
     inkscape:window-height="925"
     inkscape:window-x="420"
     inkscape:window-y="82"
     inkscape:window-maximized="0" />
  <metadata
     id="metadata5">
    <rdf:RDF>
      <cc:Work
         rdf:about="">
        <dc:format>image/svg+xml</dc:format>
        <dc:type
           rdf:resource="http://purl.org/dc/dcmitype/StillImage" />
        <dc:title />
      </cc:Work>
    </rdf:RDF>
  </metadata>
  <g
     inkscape:label="Layer 1"
     inkscape:groupmode="layer"
     id="layer1">
    <path
       id="rect881"
       style="opacity:0.504407;fill:#000000;stroke-width:3.17405;stroke-linecap:round;stroke-linejoin:round;stop-color:#000000"
       d="m 41.774941,21.400955 c -13.920333,0 -25.126955,11.206622 -25.126955,25.126955 0,13.920333 11.206622,25.126955 25.126955,25.126955 H 159.03407 A 25.126955,25.126955 0 0 1 133.90711,46.611331 25.126955,25.126955 0 0 1 158.94899,21.400955 Z m 118.492569,0.03107 a 25.126955,25.126955 0 0 1 0.13087,0.0066 c -0.0436,-0.0023 -0.0872,-0.0045 -0.13087,-0.0066 z m 1.15983,0.08507 a 25.126955,25.126955 0 0 1 0.40078,0.0409 c -0.13339,-0.01464 -0.26674,-0.02834 -0.40078,-0.0409 z m 1.13039,0.134136 a 25.126955,25.126955 0 0 1 0.61672,0.09325 c -0.20481,-0.0337 -0.41025,-0.06449 -0.61672,-0.09325 z m 0.99624,0.160318 A 25.126955,25.126955 0 0 1 183.76514,42.08652 C 181.93816,31.76868 173.86055,23.670237 163.55397,21.811554 Z m 20.22098,20.324047 a 25.126955,25.126955 0 0 1 0.14232,0.909537 c -0.042,-0.305024 -0.0896,-0.608173 -0.14232,-0.909537 z m 0.22903,1.594967 a 25.126955,25.126955 0 0 1 0.0376,0.345169 c -0.0111,-0.115459 -0.025,-0.23018 -0.0376,-0.345169 z m 0.11941,1.439565 a 25.126955,25.126955 0 0 1 0.007,0.145594 c -0.002,-0.04857 -0.004,-0.0971 -0.007,-0.145594 z m 0.007,2.597759 a 25.126955,25.126955 0 0 1 -0.007,0.117786 c 0.002,-0.03926 0.005,-0.07848 0.007,-0.117786 z m -0.0867,1.174559 a 25.126955,25.126955 0 0 1 -0.0376,0.364802 c 0.0132,-0.121405 0.0261,-0.242877 0.0376,-0.364802 z m -0.12432,1.060039 a 25.126955,25.126955 0 0 1 -0.1685,1.048599 c 0.0627,-0.347464 0.12015,-0.696227 0.1685,-1.048599 z m -0.1685,1.048599 a 25.126955,25.126955 0 0 1 -20.29295,20.211167 c 10.32555,-1.820598 18.4323,-9.899827 20.29295,-20.211167 z m -20.29295,20.211167 a 25.126955,25.126955 0 0 1 -0.91609,0.145586 c 0.30747,-0.04261 0.61234,-0.09203 0.91609,-0.145586 z m -1.66696,0.240474 a 25.126955,25.126955 0 0 1 -0.32717,0.03435 c 0.10941,-0.0104 0.21818,-0.02255 0.32717,-0.03435 z" />
  </g>
</svg>
