<?xml version="1.0" encoding="UTF-8" standalone="no"?>
<svg
   xmlns:dc="http://purl.org/dc/elements/1.1/"
   xmlns:cc="http://creativecommons.org/ns#"
   xmlns:rdf="http://www.w3.org/1999/02/22-rdf-syntax-ns#"
   xmlns:svg="http://www.w3.org/2000/svg"
   xmlns="http://www.w3.org/2000/svg"
   xmlns:sodipodi="http://sodipodi.sourceforge.net/DTD/sodipodi-0.dtd"
   xmlns:inkscape="http://www.inkscape.org/namespaces/inkscape"
   width="210mm"
   height="297mm"
   viewBox="0 0 210 297"
   version="1.1"
   id="svg8"
   inkscape:version="1.0.2 (1.0.2+r75+1)"
   sodipodi:docname="bottom.svg">
  <defs
     id="defs2" />
  <sodipodi:namedview
     id="base"
     pagecolor="#ffffff"
     bordercolor="#666666"
     borderopacity="1.0"
     inkscape:pageopacity="0.0"
     inkscape:pageshadow="2"
     inkscape:zoom="1.4"
     inkscape:cx="470.80399"
     inkscape:cy="251.7801"
     inkscape:document-units="mm"
     inkscape:current-layer="layer1"
     inkscape:document-rotation="0"
     showgrid="false"
     inkscape:window-width="1511"
     inkscape:window-height="925"
     inkscape:window-x="204"
     inkscape:window-y="77"
     inkscape:window-maximized="0" />
  <metadata
     id="metadata5">
    <rdf:RDF>
      <cc:Work
         rdf:about="">
        <dc:format>image/svg+xml</dc:format>
        <dc:type
           rdf:resource="http://purl.org/dc/dcmitype/StillImage" />
        <dc:title></dc:title>
      </cc:Work>
    </rdf:RDF>
  </metadata>
  <g
     inkscape:label="Layer 1"
     inkscape:groupmode="layer"
     id="layer1">
    <path
       id="rect833"
       style="opacity:0.504407;fill:#000000;stroke-width:2.9027;stroke-linecap:round;stroke-linejoin:round;stop-color:#000000"
       d="M 330.94336 295.83789 C 314.32336 295.83789 300.94336 309.21789 300.94336 325.83789 C 300.94336 342.45789 314.32336 355.83789 330.94336 355.83789 L 659.9082 355.83789 A 30 30 0 0 1 629.9082 325.9375 A 30 30 0 0 1 659.80664 295.83789 L 330.94336 295.83789 z M 661.38086 295.875 A 30 30 0 0 1 661.53711 295.88281 C 661.48505 295.88005 661.43299 295.8775 661.38086 295.875 z M 662.76562 295.97656 A 30 30 0 0 1 663.24414 296.02539 C 663.08487 296.00791 662.92566 295.99156 662.76562 295.97656 z M 664.11523 296.13672 A 30 30 0 0 1 664.85156 296.24805 C 664.60704 296.20781 664.36175 296.17105 664.11523 296.13672 z M 665.30469 296.32812 A 30 30 0 0 1 689.43555 320.53516 C 687.25426 308.2163 677.6101 298.54728 665.30469 296.32812 z M 689.44727 320.59375 A 30 30 0 0 1 689.61719 321.67969 C 689.56707 321.3155 689.51024 320.95356 689.44727 320.59375 z M 689.7207 322.49805 A 30 30 0 0 1 689.76562 322.91016 C 689.75238 322.77231 689.73579 322.63533 689.7207 322.49805 z M 689.86328 324.2168 A 30 30 0 0 1 689.87109 324.39062 C 689.86836 324.33264 689.86634 324.27469 689.86328 324.2168 z M 689.87109 327.31836 A 30 30 0 0 1 689.86328 327.45898 C 689.86575 327.41211 689.86883 327.36529 689.87109 327.31836 z M 689.76758 328.7207 A 30 30 0 0 1 689.72266 329.15625 C 689.73847 329.0113 689.75382 328.86628 689.76758 328.7207 z M 689.61914 329.98633 A 30 30 0 0 1 689.41797 331.23828 C 689.49283 330.82343 689.56141 330.40703 689.61914 329.98633 z M 689.41797 331.23828 A 30 30 0 0 1 665.18945 355.36914 C 677.51752 353.19546 687.19646 343.54937 689.41797 331.23828 z M 665.18945 355.36914 A 30 30 0 0 1 664.0957 355.54297 C 664.46281 355.49209 664.8268 355.43308 665.18945 355.36914 z M 663.19922 355.65625 A 30 30 0 0 1 662.80859 355.69727 C 662.93923 355.68484 663.06909 355.67033 663.19922 355.65625 z "
       transform="scale(0.26458333)" />
  </g>
</svg>
